<svg xmlns="http://www.w3.org/2000/svg" viewBox="0 0 900 470" font-family="ui-monospace, Consolas, monospace">
  <rect width="900" height="470" fill="#fbf9f4"/>

  <text x="24" y="32" font-size="18" font-weight="700" fill="#1e1b14">-48V Always-On — the Battery IS the Bus</text>
  <text x="24" y="52" font-size="12" fill="#5c5748">Parallel-redundant float architecture: no transfer switch, no switching event, ever.</text>

  <!-- architecture chain -->
  <g font-size="10.5" font-weight="700">
    <rect x="24" y="80" width="150" height="60" rx="5" fill="#e9f2fb" stroke="#0e7490" stroke-width="2"/>
    <text x="34" y="103" fill="#0e7490">Rectifiers</text><text x="34" y="119" font-weight="400" font-size="9" fill="#4a6d8a">AC → -48V DC</text><text x="34" y="132" font-weight="400" font-size="9" fill="#4a6d8a">float the bus</text>

    <rect x="204" y="70" width="150" height="100" rx="5" fill="#eef3f7" stroke="#6d28d9" stroke-width="2.5"/>
    <text x="214" y="93" fill="#6d28d9">-48V BUS</text>
    <text x="214" y="112" font-weight="400" font-size="8.5" fill="#4a2a9e">no transfer switch,</text>
    <text x="214" y="124" font-weight="400" font-size="8.5" fill="#4a2a9e">no static switch,</text>
    <text x="214" y="136" font-weight="400" font-size="8.5" fill="#4a2a9e">no switching event</text>

    <rect x="384" y="72" width="150" height="50" rx="5" fill="#fdeaea" stroke="#a4231e" stroke-width="2"/>
    <text x="394" y="94" fill="#a4231e">Batteries</text><text x="394" y="110" font-weight="400" font-size="8.5" fill="#8f1f1a">ride in parallel</text>

    <rect x="384" y="128" width="150" height="50" rx="5" fill="#fdeec9" stroke="#7a3f14" stroke-width="2"/>
    <text x="394" y="150" fill="#7a3f14">Load</text><text x="394" y="166" font-weight="400" font-size="8.5" fill="#8a5010">radios, switches</text>
  </g>
  <g stroke="#1e1b14" stroke-width="2" marker-end="url(#da)">
    <line x1="174" y1="110" x2="202" y2="110"/>
    <line x1="354" y1="97" x2="382" y2="97"/>
    <line x1="354" y1="153" x2="382" y2="153"/>
  </g>

  <!-- negative ground callout -->
  <rect x="560" y="60" width="315" height="160" rx="6" fill="#fdeec9" stroke="#b45309" stroke-width="2"/>
  <text x="574" y="83" font-size="12" font-weight="700" fill="#b45309">Why negative ground?</text>
  <text x="574" y="104" font-size="9.5" fill="#5c5748">Galvanic corrosion attacks the</text>
  <text x="574" y="118" font-size="9.5" fill="#5c5748">POSITIVE conductor in DC with</text>
  <text x="574" y="132" font-size="9.5" fill="#5c5748">moisture present.</text>
  <text x="574" y="155" font-size="9.5" font-weight="700" fill="#8a5010">Grounding the return (+) directs</text>
  <text x="574" y="169" font-size="9.5" font-weight="700" fill="#8a5010">corrosion there — not toward the</text>
  <text x="574" y="183" font-size="9.5" font-weight="700" fill="#8a5010">critical negative feed conductors.</text>
  <text x="574" y="203" font-size="9" fill="#5c5748">A Bell System decision from the 1800s, inherited globally.</text>

  <!-- voltage table -->
  <text x="24" y="250" font-size="13" font-weight="700" fill="#1e1b14">DC Plant Voltage Reference (24-cell VRLA string)</text>

  <g font-size="10">
    <rect x="24" y="263" width="852" height="30" fill="#e9f2fb" stroke="#0e7490" stroke-width="1"/>
    <text x="34" y="283" font-weight="700" fill="#0e7490">Float</text>
    <text x="150" y="283" fill="#5c5748">2.23–2.27 V/cell</text>
    <text x="320" y="283" fill="#1e1b14" font-weight="700">53.5–54.5 V bus</text>
    <text x="500" y="283" fill="#5c5748">Normal: rectifiers carry load, batteries full</text>

    <rect x="24" y="293" width="852" height="30" fill="#fdf7ea" stroke="#0e7490" stroke-width="1"/>
    <text x="34" y="313" font-weight="700" fill="#0e7490">Equalize</text>
    <text x="150" y="313" fill="#5c5748">2.33–2.40 V/cell</text>
    <text x="320" y="313" fill="#1e1b14" font-weight="700">56–57.6 V bus</text>
    <text x="500" y="313" fill="#5c5748">Periodic high-charge: corrects sulfation</text>

    <rect x="24" y="323" width="852" height="30" fill="#e9f2fb" stroke="#0e7490" stroke-width="1"/>
    <text x="34" y="343" font-weight="700" fill="#0e7490">End of discharge</text>
    <text x="150" y="343" fill="#5c5748">≈1.75 V/cell</text>
    <text x="320" y="343" fill="#1e1b14" font-weight="700">≈42 V bus</text>
    <text x="500" y="343" fill="#5c5748">LVD threshold: disconnect non-critical loads</text>

    <rect x="24" y="353" width="852" height="30" fill="#fdeaea" stroke="#a4231e" stroke-width="1"/>
    <text x="34" y="373" font-weight="700" fill="#a4231e">Emergency cutoff</text>
    <text x="150" y="373" fill="#5c5748">1.67–1.75 V/cell</text>
    <text x="320" y="373" fill="#1e1b14" font-weight="700">≈40 V bus</text>
    <text x="500" y="373" fill="#5c5748">Protect cells from deep damage</text>
  </g>

  <rect x="24" y="400" width="852" height="50" rx="5" fill="#ffffff" stroke="#1e1b14" stroke-width="2"/>
  <text x="38" y="422" font-size="10.5" font-weight="700" fill="#1e1b14">The nominally "-48V" bus runs at 54V during float — this is normal. Equipment must tolerate</text>
  <text x="38" y="438" font-size="10.5" font-weight="700" fill="#1e1b14">the full 42V–57.6V range across discharge, float, and equalize conditions.</text>

  <defs>
    <marker id="da" markerWidth="7" markerHeight="7" refX="3.5" refY="3.5" orient="auto">
      <path d="M0,0 L7,3.5 L0,7 Z" fill="#1e1b14"/>
    </marker>
  </defs>
</svg>
